<svg xmlns="http://www.w3.org/2000/svg" xmlns:xlink="http://www.w3.org/1999/xlink" viewBox="0 0 100 125" version="1.1" x="0px" y="0px"><title>magn_gls-17 copy</title><desc>Created with Sketch.</desc><g stroke="none" stroke-width="1" fill="none" fill-rule="evenodd"><path d="M92.5926518,47.9392078 L64.1803782,40.9912145 C62.4852067,40.577681 60.7781974,41.6146714 60.3638748,43.3082645 L58.4153746,51.275097 C58.0018411,52.9679009 59.0388315,54.6764885 60.7324246,55.0908112 L60.7324246,55.0916004 C62.4275961,55.505923 64.1338162,54.4673543 64.548928,52.7745503 L65.7469124,47.8744946 L88.0264217,53.3222454 L82.2724668,76.850247 L59.9929574,71.4009178 L61.2951142,66.0810151 C61.7086477,64.3882112 60.6724465,62.6796236 58.9780642,62.2645117 L58.9780642,62.2645117 C57.2828927,61.8509783 55.5766726,62.8887578 55.1615608,64.5815618 L53.1104664,72.9682412 C52.9115916,73.7811027 53.0441748,74.6405263 53.4782271,75.3555288 C53.9122794,76.0713205 54.6138657,76.5858697 55.4267273,76.7847446 L83.8390009,83.7327379 C84.0868053,83.7935053 84.3385557,83.8234943 84.5887276,83.8234943 C85.1616766,83.8234943 85.7291014,83.6672355 86.2270777,83.3649773 C86.9428694,82.930925 87.4566295,82.2293387 87.6555043,81.4164771 L94.9097019,51.7557112 C95.1085767,50.9428497 94.9759935,50.0834261 94.541152,49.3684236 C94.1070997,48.6518428 93.4055134,48.1380827 92.5926518,47.9392078 L92.5926518,47.9392078 Z M40.5450473,22.2882959 C39.7582289,20.7320212 37.8602366,20.1077751 36.3039618,20.8953827 C34.7476871,21.6822011 34.1242301,23.5809826 34.9110486,25.1364681 L41.4194653,38.0120374 C41.9750523,39.1105843 43.0862261,39.7450898 44.2384377,39.7450898 C44.7182627,39.7450898 45.2036121,39.6361821 45.6605508,39.4049507 C47.2168256,38.6181322 47.8402825,36.7193508 47.0534641,35.1638652 L40.5450473,22.2882959 Z M54.2066458,39.4988638 C54.6059739,39.6661712 55.0202965,39.7450898 55.4275165,39.7450898 C56.6610142,39.7450898 57.8321662,39.0182495 58.3404019,37.8100058 L65.240255,21.3799429 C65.9142198,19.772371 65.1589688,17.9217299 63.551397,17.2469759 C61.9461927,16.5722219 60.0939732,17.3274729 59.4192192,18.9350447 L52.518577,35.3651076 C51.8438229,36.9726795 52.5990739,38.8233206 54.2066458,39.4988638 L54.2066458,39.4988638 Z M46.8893134,72.9682412 C47.3028468,74.6610451 46.2658564,76.3696328 44.5722633,76.7847446 L16.1599897,83.7327379 C15.9129745,83.7935053 15.6612242,83.8234943 15.410263,83.8234943 C14.8381032,83.8234943 14.2706785,83.6672355 13.7727021,83.3649773 C13.0569104,82.930925 12.5423612,82.2293387 12.3434863,81.4164771 L5.09086714,51.7557112 C4.67733369,50.0621181 5.71432407,48.3535305 7.40791718,47.9392078 L35.8201908,40.9912145 C36.6330524,40.793918 37.4916867,40.9241337 38.2082676,41.3597643 C38.9232701,41.7938166 39.4378193,42.4954029 39.635905,43.3082645 L41.583616,51.275097 C41.9979387,52.9686901 40.9601591,54.6772777 39.2673552,55.0908112 C39.2673552,55.0908112 39.2673552,55.0908112 39.2673552,55.0916004 C37.5721837,55.505923 35.8643852,54.4673543 35.4508518,52.7745503 L34.2528675,47.8744946 L11.9741473,53.3222454 L17.727313,76.850247 L40.0060333,71.4009178 L38.7054548,66.0810151 C38.2911321,64.3882112 39.3289117,62.6796236 41.0217156,62.2645117 L41.0217156,62.2645117 C42.7176763,61.8509783 44.4238964,62.8879687 44.838219,64.5815618 L46.8893134,72.9682412 Z" fill="#000000"/></g></svg>