<?xml version="1.0" encoding="utf-8"?>
<!-- Generator: Adobe Illustrator 19.2.1, SVG Export Plug-In . SVG Version: 6.00 Build 0)  -->
<svg version="1.1" id="Layer_1" xmlns="http://www.w3.org/2000/svg" xmlns:xlink="http://www.w3.org/1999/xlink" x="0px" y="0px"
	 viewBox="0 0 16 16" style="enable-background:new 0 0 16 16;" xml:space="preserve">
<g>
	<path d="M13.4,0H2.6C1.1,0,0,1.1,0,2.6v10.9C0,14.9,1.1,16,2.6,16h10.9c1.4,0,2.6-1.1,2.6-2.6V2.6C16,1.1,14.9,0,13.4,0z M2.6,2
		h10.9C13.7,2,14,2.3,14,2.6V4H2V2.6C2,2.3,2.3,2,2.6,2z M13.4,14H2.6C2.3,14,2,13.7,2,13.4V6h12v7.4C14,13.7,13.7,14,13.4,14z"/>
	<polygon points="8,13 11,10 9,10 9,7 7,7 7,10 5,10 	"/>
</g>
</svg>
